<mxfile host="app.diagrams.net" modified="2024-01-30T23:42:55.258Z" agent="Mozilla/5.0 (Windows NT 10.0; Win64; x64) AppleWebKit/537.36 (KHTML, like Gecko) Chrome/121.0.0.0 Safari/537.36" etag="NDjf5cm-oA6ecan8o1es" version="23.0.0" type="device">
  <diagram name="Page-1" id="My04iPDE87iwI_xUb_gP">
    <mxGraphModel dx="1195" dy="622" grid="1" gridSize="10" guides="1" tooltips="1" connect="1" arrows="1" fold="1" page="1" pageScale="1" pageWidth="827" pageHeight="1169" math="0" shadow="0">
      <root>
        <mxCell id="0" />
        <mxCell id="1" parent="0" />
        <mxCell id="q7HWFvWDvoC3C6vNhjZC-4" value="" style="rounded=0;whiteSpace=wrap;html=1;" parent="1" vertex="1">
          <mxGeometry x="430" y="40" width="370" height="560" as="geometry" />
        </mxCell>
        <mxCell id="rnctsSZvIO_tBq5Yz8C5-2" value="" style="rounded=0;whiteSpace=wrap;html=1;" parent="1" vertex="1">
          <mxGeometry x="40" y="40" width="370" height="560" as="geometry" />
        </mxCell>
        <mxCell id="rnctsSZvIO_tBq5Yz8C5-3" value="Eight Ball Title" style="text;html=1;strokeColor=none;fillColor=none;align=center;verticalAlign=middle;whiteSpace=wrap;rounded=0;" parent="1" vertex="1">
          <mxGeometry x="135" y="100" width="180" height="30" as="geometry" />
        </mxCell>
        <mxCell id="jhtOF-ou6-nYdhYKJSAq-1" value="Answer" style="text;html=1;strokeColor=none;fillColor=none;align=center;verticalAlign=middle;whiteSpace=wrap;rounded=0;" parent="1" vertex="1">
          <mxGeometry x="565" y="240" width="100" height="30" as="geometry" />
        </mxCell>
        <mxCell id="jhtOF-ou6-nYdhYKJSAq-2" value="Main Screen" style="text;html=1;strokeColor=none;fillColor=none;align=center;verticalAlign=middle;whiteSpace=wrap;rounded=0;" parent="1" vertex="1">
          <mxGeometry x="165" y="10" width="120" height="30" as="geometry" />
        </mxCell>
        <mxCell id="q7HWFvWDvoC3C6vNhjZC-3" value="Get Answer Button" style="rounded=1;whiteSpace=wrap;html=1;" parent="1" vertex="1">
          <mxGeometry x="165" y="310" width="125" height="40" as="geometry" />
        </mxCell>
        <mxCell id="q7HWFvWDvoC3C6vNhjZC-5" value="Modal Screen" style="text;html=1;strokeColor=none;fillColor=none;align=center;verticalAlign=middle;whiteSpace=wrap;rounded=0;" parent="1" vertex="1">
          <mxGeometry x="555" y="10" width="120" height="30" as="geometry" />
        </mxCell>
        <mxCell id="q7HWFvWDvoC3C6vNhjZC-7" value="Enter Question Input" style="rounded=0;whiteSpace=wrap;html=1;" parent="1" vertex="1">
          <mxGeometry x="60" y="190" width="330" height="30" as="geometry" />
        </mxCell>
        <mxCell id="q7HWFvWDvoC3C6vNhjZC-9" value="Close Button" style="rounded=1;whiteSpace=wrap;html=1;" parent="1" vertex="1">
          <mxGeometry x="567.5" y="410" width="95" height="30" as="geometry" />
        </mxCell>
        <mxCell id="Jgt5Fz78L341t-BAXduk-1" value="Question" style="text;html=1;strokeColor=none;fillColor=none;align=center;verticalAlign=middle;whiteSpace=wrap;rounded=0;" vertex="1" parent="1">
          <mxGeometry x="565" y="110" width="100" height="30" as="geometry" />
        </mxCell>
      </root>
    </mxGraphModel>
  </diagram>
</mxfile>
